PathFileType	4	(X/Y/Z)	C:/Users/opensim2020/Desktop/walking_exp_matlab/subject01_walking08_straight_03.trc	
DataRate	CameraRate	NumFrames	NumMarkers	Units	OrigDataRate	OrigDataStartFrame	OrigNumFrames	
100.00	100.00	7	43	mm	100.00	2873	326	
Frame#	Time	LFHD			RFHD			LBHD			RBHD			C7			T10			CLAV			STRN			RBAK			LSHO			LUPA			LELB			LFRM			LWRA			LWRB			LFIN			RSHO			RUPA			RELB			RFRM			RWRA			RWRB			RFIN			LASI			RASI			LPSI			RPSI			LTHI			LKNE			LTIB			LANK			LHEE			LTOE			RTHI			RKNE			RTIB			RANK			RHEE			RTOE			*39			*40			*41			*42			
		X1	Y1	Z1	X2	Y2	Z2	X3	Y3	Z3	X4	Y4	Z4	X5	Y5	Z5	X6	Y6	Z6	X7	Y7	Z7	X8	Y8	Z8	X9	Y9	Z9	X10	Y10	Z10	X11	Y11	Z11	X12	Y12	Z12	X13	Y13	Z13	X14	Y14	Z14	X15	Y15	Z15	X16	Y16	Z16	X17	Y17	Z17	X18	Y18	Z18	X19	Y19	Z19	X20	Y20	Z20	X21	Y21	Z21	X22	Y22	Z22	X23	Y23	Z23	X24	Y24	Z24	X25	Y25	Z25	X26	Y26	Z26	X27	Y27	Z27	X28	Y28	Z28	X29	Y29	Z29	X30	Y30	Z30	X31	Y31	Z31	X32	Y32	Z32	X33	Y33	Z33	X34	Y34	Z34	X35	Y35	Z35	X36	Y36	Z36	X37	Y37	Z37	X38	Y38	Z38	X39	Y39	Z39	X40	Y40	Z40	X41	Y41	Z41	X42	Y42	Z42	X43	Y43	Z43	

164	1.630	-1096.41394	92.43927	1666.91846	-983.66272	108.42351	1674.35107	-1085.58997	-22.24553	1618.82642	-965.48657	-8.62874	1625.38953	-1041.19812	-54.11872	1427.95276	-1018.55560	-88.81432	1134.73828	-1040.03198	88.73506	1359.90417	-1045.07495	133.05408	1204.77808	-957.73590	-106.03113	1233.56262	-1200.91895	29.44021	1385.61707	-1283.21985	31.59867	1200.23682	-1284.20349	58.60009	1049.27563	-1299.03381	143.86661	968.94537	-1269.46838	265.88745	907.19031	-1295.09802	222.11514	875.21649	-1298.96326	297.33896	837.01996	-887.44714	28.57985	1389.48694	-785.86255	-33.94099	1191.21802	-784.75299	-38.84844	1066.17700	-753.10486	-16.99637	948.24945	-769.90656	59.21901	828.51868	-731.63208	15.19868	831.43964	-732.79315	49.81648	752.69855	-1135.88513	71.83098	925.31787	-919.69946	97.50785	934.63257	-1058.81372	-106.71552	937.95660	-915.20245	-88.24107	940.71039	-1172.68823	-0.68236	595.08600	-1153.52356	-31.56064	462.29443	-1152.74744	-112.67496	289.71078	-1092.35339	-171.12991	78.30993	-1036.84619	-216.87062	55.59637	-1101.23425	-27.21658	33.66048	-844.66113	119.84096	608.56726	-876.51141	176.51306	464.39447	-861.20087	184.93895	291.24811	-902.17255	240.70967	87.77854	-953.43622	209.17447	33.27775	-904.99371	384.29376	94.74576	-1006.69330	94.71536	1707.23108	-3102.08545	1972.86292	1023.74066	-3140.68994	2012.48438	1021.95917			 
165	1.640	-1094.59155	98.88959	1666.38989	-981.48602	115.00404	1673.51233	-1083.51135	-15.79191	1618.35034	-963.59802	-2.00214	1624.75854	-1039.44629	-47.65205	1427.31323	-1017.29950	-81.66715	1133.86450	-1038.48328	95.41569	1359.45581	-1044.02429	139.96954	1204.44214	-956.36768	-98.99068	1232.51575	-1199.35925	35.93932	1385.40759	-1281.87915	38.19586	1200.09619	-1283.07495	65.27403	1049.09814	-1297.95190	150.92992	969.11652	-1268.29333	273.19708	907.85388	-1293.88196	229.59772	875.69177	-1297.64844	304.97440	837.79333	-885.87909	35.22603	1388.48792	-784.65582	-27.01990	1190.06738	-783.78967	-31.80816	1065.12415	-752.29456	-9.97890	947.07953	-769.08740	66.13169	827.34381	-730.90607	22.00550	830.23499	-732.11719	56.58690	751.55969	-1135.65222	78.86287	924.91669	-919.48151	105.32701	933.79962	-1057.65100	-99.45108	937.36707	-914.07428	-80.45339	939.65497	-1172.52856	4.43784	594.75842	-1153.11279	-27.14706	462.10809	-1152.64099	-110.03508	290.39413	-1092.36731	-170.45760	79.56834	-1036.86304	-216.48343	57.04558	-1101.27356	-27.14961	33.64019	-844.98212	127.81562	607.75012	-876.82031	184.11923	463.67117	-860.86871	191.73578	290.19791	-901.81049	246.48889	86.49551	-953.11951	215.38704	31.96653	-904.48175	390.16287	93.09516	-1005.06451	101.26970	1706.48352	-3101.98804	1973.11914	1023.54309	-3140.76758	2012.52856	1021.92389			 
166	1.650	-1092.58350	105.35690	1665.89087	-979.75452	121.64420	1672.94336	-1081.49963	-9.39967	1617.93237	-961.47205	4.69144	1624.16882	-1037.57886	-41.09709	1426.56592	-1015.96448	-74.37589	1132.96997	-1036.95300	102.22205	1359.06140	-1042.83569	147.10289	1204.09412	-954.89813	-91.99422	1231.48267	-1197.74182	42.47156	1385.19104	-1280.46216	44.79374	1199.94958	-1281.83704	71.98921	1048.94275	-1296.67786	157.85249	969.19666	-1266.91492	280.33044	908.39044	-1292.66797	236.82361	876.05261	-1296.34766	312.51685	838.57623	-884.13672	41.98661	1387.64331	-783.42120	-19.97321	1188.92065	-782.78192	-24.70677	1063.98804	-751.43378	-2.96776	945.87665	-768.31012	73.17421	826.19318	-730.02148	29.20162	829.06885	-731.28894	63.50612	750.30920	-1135.32312	86.00420	924.48615	-919.12500	113.17689	932.97693	-1056.45911	-92.03209	936.82159	-913.02612	-72.84519	939.10394	-1172.47510	9.54712	594.51294	-1152.97852	-22.71914	461.96857	-1152.37500	-107.03097	291.07910	-1092.51038	-169.83849	80.66122	-1036.92688	-216.18832	58.71042	-1101.36023	-27.07076	33.71207	-845.27161	135.95876	607.33783	-876.64307	191.49101	462.70615	-860.73004	198.06717	288.89670	-901.65045	251.18330	85.05147	-953.03369	219.88132	30.85745	-904.01300	394.90173	90.95076	-1003.08295	107.88958	1705.85681	-3102.07080	1973.09912	1023.83521	-3140.82544	2012.47913	1022.08435			 
167	1.660	-1090.66675	111.77512	1665.33337	-977.54254	128.34615	1672.30139	-1079.43469	-2.95539	1617.44727	-959.30457	11.38383	1623.50867	-1035.70374	-34.42369	1425.72009	-1014.56049	-67.08297	1132.10339	-1035.21021	108.98434	1358.60913	-1041.61157	154.22046	1203.76404	-953.30951	-84.90054	1230.34119	-1195.90845	49.04822	1384.98560	-1279.07922	51.44079	1199.83191	-1280.51331	78.61547	1048.86536	-1295.37854	164.66130	969.17615	-1265.71533	287.29343	908.71027	-1291.32788	243.93169	876.24200	-1295.05444	319.62057	838.87134	-882.33844	48.69960	1386.87463	-782.10944	-12.97645	1187.72632	-781.62036	-17.38127	1062.79858	-750.43140	4.25963	944.76935	-767.54779	80.20224	824.97028	-729.27112	36.17170	827.87531	-730.65601	70.52047	749.00824	-1134.83472	93.34857	924.06506	-918.63910	121.18247	932.20026	-1055.28430	-84.53578	936.21527	-912.00659	-64.93185	938.25354	-1172.24109	14.76381	594.26208	-1152.74951	-18.18713	461.83109	-1152.31213	-104.21938	291.77399	-1092.62463	-169.23180	81.92894	-1037.19739	-215.75316	60.18640	-1101.31238	-26.99771	33.58586	-845.91864	144.16374	606.49963	-876.54218	198.88846	461.75903	-860.54224	203.78920	287.65369	-901.64539	254.74643	83.24886	-953.10083	222.45143	29.80974	-903.62964	398.48380	87.96701	-1001.09802	114.47490	1705.29285	-3101.92529	1973.07971	1023.32092	-3140.85303	2012.54712	1022.07593			 
168	1.670	-1088.50415	118.24281	1664.85730	-975.50867	134.95232	1671.59338	-1077.12817	3.45350	1616.80151	-957.04041	18.10027	1622.85266	-1033.63586	-27.88255	1424.88879	-1013.21796	-59.62904	1131.09888	-1033.43091	115.83723	1358.17224	-1040.17493	161.48157	1203.45984	-951.65100	-77.78680	1229.25525	-1194.04883	55.63357	1384.75452	-1277.54077	58.12451	1199.71729	-1279.20300	85.14683	1048.65112	-1294.10767	171.33337	969.10071	-1264.35242	294.11374	908.89282	-1290.06848	250.81734	876.34027	-1293.80310	326.61716	839.17566	-880.48535	55.48060	1385.84302	-780.68231	-5.98333	1186.44897	-780.35120	-10.08027	1061.62341	-749.40326	11.50989	943.50775	-766.60376	87.58109	823.76862	-728.46777	43.42421	826.49304	-729.83374	77.80701	747.80505	-1134.26855	100.90439	923.59595	-918.11804	129.33864	931.41821	-1054.14832	-76.71838	935.62372	-910.98969	-56.88220	937.72272	-1171.99316	20.18895	594.10419	-1152.52649	-13.57760	461.71591	-1152.19360	-101.26537	292.53748	-1092.90527	-168.59290	83.20039	-1037.58813	-215.47514	62.02884	-1101.35938	-26.94280	33.53541	-846.62659	152.60751	605.84161	-876.32526	205.96262	460.61569	-860.54053	209.21367	286.20776	-901.83673	257.64352	81.43593	-953.02905	224.50635	29.28654	-903.45654	401.19910	84.34021	-998.89294	121.08031	1704.63208	-3101.96973	1973.15637	1023.58551	-3140.72876	2012.56104	1022.05060			 
169	1.680	-1086.37158	124.64182	1664.35632	-973.34100	141.66124	1670.94958	-1074.79370	9.92047	1616.35364	-954.74908	24.81116	1622.15955	-1031.43091	-21.21613	1423.98901	-1011.78967	-52.06451	1130.08948	-1031.51196	122.72006	1357.76733	-1038.70959	168.75519	1203.19336	-949.91016	-70.46724	1228.07959	-1192.03601	62.28359	1384.56042	-1275.98108	64.78703	1199.65857	-1277.78064	91.69564	1048.43542	-1292.76343	177.92691	968.98181	-1263.02881	300.79254	908.89044	-1288.73328	257.53082	876.31427	-1292.46924	333.40976	839.25482	-878.45850	62.47247	1385.05872	-779.19232	1.15832	1185.21033	-779.06635	-2.63494	1060.37830	-748.28723	18.97568	942.27576	-765.68713	94.96027	822.48395	-727.72119	50.53072	825.29913	-729.02484	85.26584	746.49463	-1133.63098	108.67741	923.09497	-917.42682	137.65506	930.72766	-1052.93176	-68.84525	935.07770	-909.92975	-48.65880	936.99670	-1171.58984	25.68292	593.83630	-1152.22595	-8.72919	461.59146	-1152.11401	-98.18882	293.38275	-1093.19067	-167.92903	84.51537	-1037.86279	-215.03458	63.81104	-1101.40576	-26.87058	33.49443	-846.94061	160.85582	605.06995	-875.94629	213.17485	459.52753	-860.69550	214.24825	284.56680	-902.43530	259.88312	79.58692	-953.42444	225.55048	28.16954	-903.49847	403.20163	79.77911	-996.66937	127.73898	1704.01331	-3102.03687	1973.09033	1023.41522	-3140.77075	2012.44800	1021.94452			 
170	1.690	-1084.23657	131.12617	1663.85400	-971.21655	148.31180	1670.38135	-1072.37488	16.45125	1615.83411	-952.34265	31.52498	1621.55310	-1029.23865	-14.43668	1423.12415	-1010.40747	-44.37705	1129.06934	-1029.54810	129.64461	1357.35181	-1037.11145	176.14932	1203.01648	-948.13287	-63.14367	1226.93018	-1189.97778	68.93800	1384.35120	-1274.27637	71.53664	1199.65271	-1276.30420	98.19469	1048.34546	-1291.43066	184.43486	968.79694	-1261.67236	307.29099	908.73340	-1287.53479	264.04395	876.16077	-1291.10876	339.96228	839.17627	-876.34045	69.37615	1384.15955	-777.66858	8.32974	1183.91541	-777.73767	4.82445	1059.13513	-747.10840	26.58708	940.98651	-764.77722	102.49735	821.19244	-726.69043	58.01301	823.90961	-728.23438	92.88457	745.20435	-1132.81677	116.63709	922.55225	-916.72626	145.96159	930.14154	-1051.79639	-60.83941	934.58307	-908.67285	-40.39124	936.39075	-1171.02576	31.50953	593.60242	-1152.01563	-3.80648	461.46268	-1152.00098	-94.97500	294.22501	-1093.67896	-167.12120	86.00159	-1038.36450	-214.46809	65.84254	-1101.47095	-26.80574	33.51162	-847.29504	168.81863	604.41852	-875.56427	219.93980	458.01550	-861.36206	218.78827	282.97754	-903.53668	261.78412	78.50023	-954.67529	225.90662	28.52202	-903.42181	405.04910	74.07291	-994.17474	134.44243	1703.58362	-3101.84790	1973.17920	1023.53772	-3140.67285	2012.44092	1021.96686			 
